<svg xmlns="http://www.w3.org/2000/svg" width="220" height="220" viewBox="0 0 220 220" role="img" aria-label="千问下载二维码示意图">
  <rect width="220" height="220" rx="18" fill="#ffffff"/>
  <rect x="14" y="14" width="192" height="192" rx="12" fill="#ffffff" stroke="#d9d9d9"/>

  <g fill="#111111">
    <rect x="28" y="28" width="44" height="44" rx="4"/>
    <rect x="34" y="34" width="32" height="32" fill="#ffffff" rx="3"/>
    <rect x="40" y="40" width="20" height="20" rx="2"/>

    <rect x="148" y="28" width="44" height="44" rx="4"/>
    <rect x="154" y="34" width="32" height="32" fill="#ffffff" rx="3"/>
    <rect x="160" y="40" width="20" height="20" rx="2"/>

    <rect x="28" y="148" width="44" height="44" rx="4"/>
    <rect x="34" y="154" width="32" height="32" fill="#ffffff" rx="3"/>
    <rect x="40" y="160" width="20" height="20" rx="2"/>

    <rect x="88" y="30" width="8" height="8"/>
    <rect x="104" y="30" width="8" height="8"/>
    <rect x="120" y="30" width="8" height="8"/>

    <rect x="80" y="46" width="8" height="8"/>
    <rect x="96" y="46" width="8" height="8"/>
    <rect x="112" y="46" width="8" height="8"/>
    <rect x="128" y="46" width="8" height="8"/>

    <rect x="86" y="62" width="8" height="8"/>
    <rect x="102" y="62" width="8" height="8"/>
    <rect x="118" y="62" width="8" height="8"/>

    <rect x="84" y="88" width="8" height="8"/>
    <rect x="100" y="88" width="8" height="8"/>
    <rect x="116" y="88" width="8" height="8"/>
    <rect x="132" y="88" width="8" height="8"/>
    <rect x="148" y="88" width="8" height="8"/>

    <rect x="84" y="104" width="8" height="8"/>
    <rect x="100" y="104" width="8" height="8"/>
    <rect x="116" y="104" width="8" height="8"/>
    <rect x="132" y="104" width="8" height="8"/>

    <rect x="84" y="120" width="8" height="8"/>
    <rect x="100" y="120" width="8" height="8"/>
    <rect x="116" y="120" width="8" height="8"/>
    <rect x="132" y="120" width="8" height="8"/>
    <rect x="148" y="120" width="8" height="8"/>

    <rect x="88" y="136" width="8" height="8"/>
    <rect x="104" y="136" width="8" height="8"/>
    <rect x="120" y="136" width="8" height="8"/>
    <rect x="136" y="136" width="8" height="8"/>

    <rect x="84" y="152" width="8" height="8"/>
    <rect x="100" y="152" width="8" height="8"/>
    <rect x="116" y="152" width="8" height="8"/>
    <rect x="132" y="152" width="8" height="8"/>
    <rect x="148" y="152" width="8" height="8"/>

    <rect x="84" y="168" width="8" height="8"/>
    <rect x="100" y="168" width="8" height="8"/>
    <rect x="116" y="168" width="8" height="8"/>
    <rect x="132" y="168" width="8" height="8"/>
    <rect x="148" y="168" width="8" height="8"/>
    <rect x="164" y="168" width="8" height="8"/>

    <rect x="180" y="88" width="8" height="8"/>
    <rect x="180" y="104" width="8" height="8"/>
    <rect x="180" y="120" width="8" height="8"/>
    <rect x="180" y="136" width="8" height="8"/>
    <rect x="180" y="152" width="8" height="8"/>
  </g>

  <rect x="56" y="194" width="108" height="14" rx="7" fill="#f3f3f3"/>
  <text x="110" y="204" text-anchor="middle" font-family="Noto Sans SC, sans-serif" font-size="9" fill="#555">千问下载码（示意）</text>
</svg>
